<svg xmlns="http://www.w3.org/2000/svg" width="57.116" height="62" viewBox="0 0 57.116 62">
    <g id="logo" transform="translate(-1576.884 -126.428)">
        <path id="Icon_material-sharp-psychology-alt" d="M60.9,25.373a24.1,24.1,0,0,0-47.74-.207L6.516,37.153a3.438,3.438,0,0,0,2.928,5.236h3.444V56.167H23.222V66.5H47.333V50.38A24.166,24.166,0,0,0,60.9,25.373ZM35.277,42.389a2.543,2.543,0,0,1-2.549-2.549,2.514,2.514,0,0,1,2.549-2.514,2.532,2.532,0,0,1,0,5.063Zm6.062-14.88c-1.516,2.239-2.962,2.928-3.754,4.374-.31.586-.448.964-.448,2.824H33.486a8.006,8.006,0,0,1,.62-4c.964-1.757,2.859-2.79,3.927-4.34a2.985,2.985,0,0,0-2.756-4.684,3.836,3.836,0,0,0-3.617,2.962l-3.307-1.378a7.2,7.2,0,0,1,6.923-4.994,6.772,6.772,0,0,1,6.028,3.031,6.038,6.038,0,0,1,.034,6.2Z" transform="translate(1570.884 121.928)" fill="#163ac2"/>
        <circle id="Ellipse_7" cx="15" cy="15" r="15" transform="translate(1591 136)" fill="#163ac2"/>
        <g id="Group_18" transform="translate(6 4)">
            <path id="Icon_material-question-mark" d="M13.527,12.582c.632-1.141,1.846-1.813,2.552-2.823A1.933,1.933,0,0,0,14.29,6.724a2.5,2.5,0,0,0-2.355,1.92L9.81,7.749A4.644,4.644,0,0,1,14.282,4.5,4.406,4.406,0,0,1,18.2,6.477a3.944,3.944,0,0,1,.025,4.021c-.985,1.452-1.928,1.9-2.437,2.831-.205.377-.287.624-.287,1.838H13.133A4.96,4.96,0,0,1,13.527,12.582Zm2.4,5.867a1.641,1.641,0,1,1-1.641-1.641A1.646,1.646,0,0,1,15.931,18.449Z" transform="translate(1588.237 132.564)" fill="#1fd1ed"/>
            <path id="Icon_material-search" d="M33.088,29.657H31.281l-.64-.617a14.888,14.888,0,1,0-1.6,1.6l.617.64v1.807L41.092,44.5,44.5,41.092Zm-13.722,0A10.292,10.292,0,1,1,29.657,19.366,10.278,10.278,0,0,1,19.366,29.657Z" transform="translate(1583.5 125.5)" fill="#1fd1ed"/>
        </g>
    </g>
</svg>
